<svg width="35" height="34" viewBox="0 0 35 34" fill="none" xmlns="http://www.w3.org/2000/svg">
<path fill-rule="evenodd" clip-rule="evenodd" d="M16.7296 29.1261C13.642 27.2602 10.7696 25.0642 8.16391 22.5774C6.33199 20.7865 4.93737 18.6032 4.08687 16.1947C2.55637 11.5226 4.34409 6.17394 9.34716 4.59104C11.9766 3.75987 14.8483 4.23492 17.064 5.86757C19.2805 4.23691 22.1512 3.76203 24.7808 4.59104C29.7838 6.17394 31.5844 11.5226 30.0539 16.1947C29.2034 18.6032 27.8088 20.7865 25.9769 22.5774C23.3712 25.0642 20.4988 27.2602 17.4112 29.1261L17.0768 29.3303L16.7296 29.1261Z" stroke="white" stroke-width="2" stroke-linecap="round" stroke-linejoin="round"/>
<path d="M22.3887 9.84961C23.904 10.3249 24.9807 11.6607 25.1153 13.2324" stroke="white" stroke-width="2" stroke-linecap="round" stroke-linejoin="round"/>
</svg>
