<svg width="24" height="24" viewBox="0 0 24 24" fill="none" xmlns="http://www.w3.org/2000/svg">
<path d="M18.2856 6.28655H19.4284M5.14272 0.572266H18.857C21.3817 0.572266 23.4284 2.61896 23.4284 5.14369V18.858C23.4284 21.3827 21.3817 23.4294 18.857 23.4294H5.14272C2.61799 23.4294 0.571289 21.3827 0.571289 18.858V5.14369C0.571289 2.61896 2.61799 0.572266 5.14272 0.572266ZM11.9999 16.5723C9.47513 16.5723 7.42843 14.5256 7.42843 12.0008C7.42843 9.47611 9.47513 7.42941 11.9999 7.42941C14.5246 7.42941 16.5713 9.47611 16.5713 12.0008C16.5713 14.5256 14.5246 16.5723 11.9999 16.5723Z" stroke="black"/>
</svg>
