<svg width="35" height="34" viewBox="0 0 35 34" fill="none" xmlns="http://www.w3.org/2000/svg">
<ellipse cx="16.4709" cy="10.1657" rx="6.79656" ry="6.67354" stroke="white" stroke-width="2" stroke-linecap="round" stroke-linejoin="round"/>
<path fill-rule="evenodd" clip-rule="evenodd" d="M5.68996 26.1207C5.68814 25.6516 5.79499 25.1882 6.00245 24.7655C6.65346 23.4871 8.48931 22.8095 10.0127 22.5027C11.1113 22.2725 12.2252 22.1187 13.3459 22.0424C15.4208 21.8635 17.5076 21.8635 19.5825 22.0424C20.7032 22.1195 21.8169 22.2733 22.9157 22.5027C24.4391 22.8095 26.2749 23.4232 26.926 24.7655C27.3432 25.627 27.3432 26.6272 26.926 27.4887C26.2749 28.831 24.4391 29.4447 22.9157 29.7387C21.8184 29.9785 20.7041 30.1366 19.5825 30.2118C17.8937 30.3523 16.1971 30.378 14.5047 30.2885C14.1141 30.2885 13.7365 30.2885 13.3459 30.2118C12.2285 30.1375 11.1185 29.9794 10.0257 29.7387C8.48931 29.4447 6.66648 28.831 6.00245 27.4887C5.79605 27.0611 5.6893 26.5938 5.68996 26.1207Z" stroke="white" stroke-width="2" stroke-linecap="round" stroke-linejoin="round"/>
</svg>
