<svg width="46" height="48" viewBox="0 0 46 48" fill="none" xmlns="http://www.w3.org/2000/svg">
<path fill-rule="evenodd" clip-rule="evenodd" d="M21.6517 10.0234C14.7315 10.0234 9.12158 15.748 9.12158 22.8096C9.12158 29.8712 14.7315 35.5957 21.6517 35.5957C24.6112 35.5957 27.3311 34.5487 29.475 32.7979L33.5476 36.9429L33.6559 37.0381C34.0341 37.3236 34.5701 37.2912 34.9123 36.9411C35.2886 36.5561 35.2878 35.9326 34.9105 35.5485L30.8859 31.4523C32.9326 29.1765 34.1818 26.1419 34.1818 22.8096C34.1818 15.748 28.5719 10.0234 21.6517 10.0234ZM21.6525 11.9927C27.5068 11.9927 32.2527 16.8355 32.2527 22.8094C32.2527 28.7834 27.5068 33.6262 21.6525 33.6262C15.7982 33.6262 11.0524 28.7834 11.0524 22.8094C11.0524 16.8355 15.7982 11.9927 21.6525 11.9927Z" fill="white"/>
</svg>
