<svg width="24" height="21" viewBox="0 0 24 21" fill="none" xmlns="http://www.w3.org/2000/svg">
<path d="M2.51518 17.8408L2.42899 18.3333H2.42899L2.51518 17.8408ZM21.4845 17.8408L21.5707 18.3333L21.4845 17.8408ZM21.6148 3.30339L21.7069 2.81195L21.6148 3.30339ZM2.38495 3.30339L2.4771 3.79483H2.4771L2.38495 3.30339ZM9.71415 7.5006L9.94656 7.0579C9.79157 6.97653 9.60532 6.98214 9.4555 7.07269C9.30569 7.16324 9.21415 7.32554 9.21415 7.5006H9.71415ZM9.71415 13.5006H9.21415C9.21415 13.6756 9.30569 13.838 9.4555 13.9285C9.60532 14.0191 9.79157 14.0247 9.94656 13.9433L9.71415 13.5006ZM15.4284 10.5006L15.6608 10.9433C15.8254 10.8569 15.9284 10.6864 15.9284 10.5006C15.9284 10.3148 15.8254 10.1443 15.6608 10.0579L15.4284 10.5006ZM0.0712891 5.26643V15.766H1.07129V5.26643H0.0712891ZM23.9284 15.766V5.26643H22.9284V15.766H23.9284ZM2.42899 18.3333C8.74714 19.439 15.2526 19.439 21.5707 18.3333L21.3983 17.3483C15.1943 18.434 8.80546 18.434 2.60137 17.3483L2.42899 18.3333ZM21.7069 2.81195C15.308 1.61216 8.69171 1.61216 2.29281 2.81195L2.4771 3.79483C8.7542 2.61787 15.2455 2.61787 21.5226 3.79483L21.7069 2.81195ZM23.9284 5.26643C23.9284 4.03462 22.9546 3.0459 21.7069 2.81195L21.5226 3.79483C22.3907 3.95759 22.9284 4.60492 22.9284 5.26643H23.9284ZM22.9284 15.766C22.9284 16.4862 22.3372 17.184 21.3983 17.3483L21.5707 18.3333C22.8924 18.102 23.9284 17.063 23.9284 15.766H22.9284ZM0.0712891 15.766C0.0712891 17.063 1.10729 18.102 2.42899 18.3333L2.60137 17.3483C1.66249 17.184 1.07129 16.4862 1.07129 15.766H0.0712891ZM1.07129 5.26643C1.07129 4.60492 1.60902 3.95759 2.4771 3.79483L2.29281 2.81195C1.04511 3.0459 0.0712891 4.03462 0.0712891 5.26643H1.07129ZM9.21415 7.5006V13.5006H10.2141V7.5006H9.21415ZM9.94656 13.9433L15.6608 10.9433L15.196 10.0579L9.48173 13.0579L9.94656 13.9433ZM15.6608 10.0579L9.94656 7.0579L9.48173 7.94329L15.196 10.9433L15.6608 10.0579Z" fill="black"/>
</svg>
